{"accessors" : [{"bufferView" : 0, "byteOffset" : 0, "componentType" : 5123, "count" : 1440, "type" : "SCALAR", "max" : [1363], "min" : [0]}, {"bufferView" : 1, "byteOffset" : 0, "componentType" : 5126, "count" : 1364, "type" : "VEC3", "max" : [0.014730545692145824, 0.009216138161718845, 0.008039018139243126], "min" : [-0.014988596551120281, -0.009279211983084679, -0.008280373178422451], "name" : "POSITION"}, {"bufferView" : 1, "byteOffset" : 12, "componentType" : 5126, "count" : 1364, "type" : "VEC3", "max" : [0.9849292635917664, 0.9986159205436707, 0.9928452968597412], "min" : [-0.9759571552276611, -0.9969045519828796, -0.9981303811073303], "name" : "NORMAL"}], "asset" : {"generator" : "Aspose.3D 23.9.0", "version" : "2.0"}, "buffers" : [{"uri" : "data:application/octet-stream;base64,", "byteLength" : 37448}], "bufferViews" : [{"buffer" : 0, "byteOffset" : 0, "byteLength" : 2880, "target" : 34963}, {"buffer" : 0, "byteOffset" : 2884, "byteLength" : 34560, "byteStride" : 24, "target" : 34962}], "materials" : [{"name" : "White", "pbrMetallicRoughness" : {"baseColorFactor" : [0.64000004529953, 0.64000004529953, 0.64000004529953, 1], "metallicFactor" : 0.400000005960464, "roughnessFactor" : 0.415087103843689}, "emissiveFactor" : [0, 0, 0], "alphaMode" : "OPAQUE", "doubleSided" : false}], "meshes" : [{"primitives" : [{"attributes" : {"POSITION" : 1, "NORMAL" : 2}, "indices" : 0, "material" : 0, "mode" : 4}]}], "nodes" : [{"matrix" : [100, 0, 0, 0, 0, -1.3435885581891682E-05, -99.99999657714513, 0, 0, 99.99999657714513, -1.3435885581891682E-05, 0, 0, 0, 0, 1], "mesh" : 0, "name" : "Cloud1"}, {"children" : [0], "name" : "RootNode"}], "scene" : 0, "scenes" : [{"nodes" : [1]}]}