{"accessors" : [{"bufferView" : 0, "byteOffset" : 0, "componentType" : 5123, "count" : 1440, "type" : "SCALAR", "max" : [1380], "min" : [0]}, {"bufferView" : 1, "byteOffset" : 0, "componentType" : 5126, "count" : 1381, "type" : "VEC3", "max" : [0.021320724859833717, 0.00873519852757454, 0.010335072875022888], "min" : [-0.021320724859833717, -0.00873519852757454, -0.010335072875022888], "name" : "POSITION"}, {"bufferView" : 1, "byteOffset" : 12, "componentType" : 5126, "count" : 1381, "type" : "VEC3", "max" : [0.9698179364204407, 0.9944362044334412, 0.9838658571243286], "min" : [-0.9365033507347107, -0.9999126195907593, -0.997404932975769], "name" : "NORMAL"}], "asset" : {"generator" : "Aspose.3D 23.9.0", "version" : "2.0"}, "buffers" : [{"uri" : "data:application/octet-stream;base64,", "byteLength" : 37448}], "bufferViews" : [{"buffer" : 0, "byteOffset" : 0, "byteLength" : 2880, "target" : 34963}, {"buffer" : 0, "byteOffset" : 2884, "byteLength" : 34560, "byteStride" : 24, "target" : 34962}], "materials" : [{"name" : "White", "pbrMetallicRoughness" : {"baseColorFactor" : [0.64000004529953, 0.64000004529953, 0.64000004529953, 1], "metallicFactor" : 0.400000005960464, "roughnessFactor" : 0.415087103843689}, "emissiveFactor" : [0, 0, 0], "alphaMode" : "OPAQUE", "doubleSided" : false}], "meshes" : [{"primitives" : [{"attributes" : {"POSITION" : 1, "NORMAL" : 2}, "indices" : 0, "material" : 0, "mode" : 4}]}], "nodes" : [{"matrix" : [100, 0, 0, 0, 0, -1.3435885581891682E-05, -99.99999657714513, 0, 0, 99.99999657714513, -1.3435885581891682E-05, 0, 0, 0, 0, 1], "mesh" : 0, "name" : "Cloud2"}, {"children" : [0], "name" : "RootNode"}], "scene" : 0, "scenes" : [{"nodes" : [1]}]}