{"accessors" : [{"bufferView" : 0, "byteOffset" : 0, "componentType" : 5123, "count" : 1680, "type" : "SCALAR", "max" : [1679], "min" : [0]}, {"bufferView" : 1, "byteOffset" : 0, "componentType" : 5126, "count" : 1680, "type" : "VEC3", "max" : [273.9071960449219, 47.59990692138672, 324.86541748046875], "min" : [-305.30841064453125, -118.08362579345703, 46.5089111328125], "name" : "POSITION"}, {"bufferView" : 1, "byteOffset" : 12, "componentType" : 5126, "count" : 1680, "type" : "VEC3", "max" : [0.6208376884460449, 0.9897662997245789, 0.9789910912513733], "min" : [-0.6208378076553345, -0.9897662997245789, -0.9789910912513733], "name" : "NORMAL"}, {"bufferView" : 1, "byteOffset" : 24, "componentType" : 5126, "count" : 1680, "type" : "VEC2", "max" : [1, 1], "min" : [0, 0], "name" : "TEXCOORD_0"}], "asset" : {"generator" : "Aspose.3D 23.9.0", "version" : "2.0"}, "buffers" : [{"uri" : "data:application/octet-stream;base64,", "byteLength" : 57128}], "bufferViews" : [{"buffer" : 0, "byteOffset" : 0, "byteLength" : 3360, "target" : 34963}, {"buffer" : 0, "byteOffset" : 3364, "byteLength" : 53760, "byteStride" : 32, "target" : 34962}], "materials" : [{"name" : "blinn6SG", "pbrMetallicRoughness" : {"baseColorFactor" : [1, 1, 1, 1], "metallicFactor" : 0, "roughnessFactor" : 1}, "emissiveFactor" : [0, 0, 0], "alphaMode" : "OPAQUE", "doubleSided" : false}], "meshes" : [{"primitives" : [{"attributes" : {"POSITION" : 1, "NORMAL" : 2, "TEXCOORD_0" : 3}, "indices" : 0, "material" : 0, "mode" : 4}]}], "nodes" : [{"mesh" : 0, "name" : "pSphere36"}], "scene" : 0, "scenes" : [{"nodes" : [0]}]}