{"accessors" : [{"bufferView" : 0, "byteOffset" : 0, "componentType" : 5123, "count" : 960, "type" : "SCALAR", "max" : [823], "min" : [0]}, {"bufferView" : 1, "byteOffset" : 0, "componentType" : 5126, "count" : 824, "type" : "VEC3", "max" : [0.005405830219388008, 0.004505057819187641, 0.005405830219388008], "min" : [-0.005405830219388008, 4.641856503440067E-05, -0.005405830219388008], "name" : "POSITION"}, {"bufferView" : 1, "byteOffset" : 12, "componentType" : 5126, "count" : 824, "type" : "VEC3", "max" : [0.9863814115524292, 1.0000044107437134, 0.9863815903663635], "min" : [-0.9863814115524292, -1.0000044107437134, -0.9863815903663635], "name" : "NORMAL"}, {"bufferView" : 1, "byteOffset" : 24, "componentType" : 5126, "count" : 824, "type" : "VEC2", "max" : [0.02300003170967102, 0.7717499732971191], "min" : [0.022000014781951904, 0.7707499265670776], "name" : "TEXCOORD_0"}], "asset" : {"generator" : "Aspose.3D 23.9.0", "version" : "2.0"}, "buffers" : [{"uri" : "data:application/octet-stream;base64,", "byteLength" : 32648}], "bufferViews" : [{"buffer" : 0, "byteOffset" : 0, "byteLength" : 1920, "target" : 34963}, {"buffer" : 0, "byteOffset" : 1924, "byteLength" : 30720, "byteStride" : 32, "target" : 34962}], "images" : [{"uri" : "data:image/png;base64,"}], "materials" : [{"name" : "Atlas", "pbrMetallicRoughness" : {"baseColorFactor" : [1, 1, 1, 1], "baseColorTexture" : {"index" : 0, "texCoord" : 0}, "metallicFactor" : 0.400000005960464, "roughnessFactor" : 1}, "emissiveFactor" : [0, 0, 0], "alphaMode" : "OPAQUE", "doubleSided" : false}], "meshes" : [{"primitives" : [{"attributes" : {"POSITION" : 1, "NORMAL" : 2, "TEXCOORD_0" : 3}, "indices" : 0, "material" : 0, "mode" : 4}]}], "nodes" : [{"matrix" : [100, 0, 0, 0, 0, 99.9999999999999, 4.3711388286738005E-06, 0, 0, -4.3711388286738005E-06, 99.9999999999999, 0, 0, 0, 0, 1], "mesh" : 0, "name" : "FoodIngredient_Rice"}, {"children" : [0], "name" : "RootNode"}], "samplers" : [{"magFilter" : 9728, "minFilter" : 9728, "wrapS" : 10497, "wrapT" : 10497}], "scene" : 0, "scenes" : [{"nodes" : [1]}], "textures" : [{"sampler" : 0, "source" : 0, "name" : ""}]}